<svg xmlns="http://www.w3.org/2000/svg" viewBox="134.77 228.31 1433.63 451.59" role="img" aria-label="MentionBee">
<path d="M0 0 C1.062 0.286 2.124 0.572 3.219 0.867 C25.955 7.851 47.059 20.824 66.625 34.125 C72.146 37.866 77.782 41.36 83.562 44.688 C84.313 45.134 85.063 45.581 85.836 46.042 C88.998 47.821 91.247 48.972 94.906 49.109 C99.558 47.441 103.686 45.063 107.938 42.562 C108.873 42.02 109.809 41.478 110.773 40.92 C116.138 37.781 121.372 34.511 126.5 31 C139.371 22.21 153.039 14.776 167.062 8 C167.977 7.555 168.892 7.111 169.834 6.653 C187.849 -1.868 207.73 -5.746 227.082 0.742 C235.381 4.32 242.918 11.021 246.438 19.438 C247.937 28.936 246.82 36.223 241.422 44.387 C239.696 46.676 237.891 48.846 236 51 C235.511 51.583 235.023 52.165 234.52 52.766 C220.378 68.325 197.132 77.985 176.406 79.379 C163.636 79.873 149.986 78.292 138.074 73.469 C110.904 62.87 68.417 66.621 41.441 75.859 C19.552 83.114 -3.963 79.083 -24.179 68.962 C-38.377 61.461 -52.765 50.01 -58.344 34.477 C-60.152 27.652 -59.454 21.177 -56 15 C-49.264 5.636 -41.549 0.613 -30.173 -1.679 C-20.111 -3.164 -9.758 -2.805 0 0 Z " fill="#FFC400" transform="translate(241,428)"/>
<path d="M0 0 C0.782 0.566 1.563 1.132 2.368 1.716 C7.288 5.212 12.333 8.425 17.482 11.571 C19.337 12.713 21.193 13.855 23.048 14.997 C24.922 16.147 26.795 17.296 28.669 18.446 C40.973 26.006 53.195 33.68 65.345 41.486 C75.381 47.924 85.508 54.208 95.669 60.446 C96.324 60.848 96.978 61.25 97.653 61.664 C97.953 61.848 97.953 61.848 99.474 62.782 C101.588 64.08 103.699 65.383 105.806 66.692 C107.748 67.882 109.71 69.04 111.689 70.169 C121.163 75.737 126.013 83.17 129.669 93.446 C130.503 96.985 130.791 100.247 130.783 103.879 C130.783 104.94 130.783 106 130.782 107.093 C130.777 108.227 130.772 109.36 130.767 110.528 C130.766 111.113 130.766 111.113 130.763 114.071 C130.757 117.801 130.744 121.53 130.732 125.259 C130.727 127.789 130.722 130.32 130.718 132.85 C130.707 139.049 130.69 145.247 130.669 151.446 C130.137 151.044 129.606 150.642 129.058 150.228 C128.704 149.962 128.704 149.962 126.915 148.614 C126.218 148.088 125.522 147.563 124.804 147.021 C116.873 141.17 109.438 137.958 99.669 136.446 C99.662 136.139 99.662 136.139 99.625 134.585 C99.55 131.747 99.453 128.909 99.357 126.071 C99.334 125.106 99.312 124.14 99.288 123.145 C98.91 112.889 96.788 103.193 89.669 95.446 C82.63 89.689 74.784 85.292 66.865 80.872 C61.383 77.754 56.069 74.365 50.732 71.009 C43.618 66.536 36.495 62.096 29.27 57.804 C22.879 53.998 16.566 50.067 10.25 46.137 C7.726 44.568 5.199 43.005 2.669 41.446 C1.783 40.899 0.897 40.351 -0.016 39.787 C-0.887 39.256 -1.758 38.724 -2.655 38.177 C-3.044 37.938 -3.044 37.938 -5.013 36.732 C-13.713 31.905 -23.362 31.269 -32.932 33.637 C-40.808 36.293 -47.747 41.283 -54.666 45.787 C-61.605 50.302 -68.682 54.587 -75.758 58.884 C-80.555 61.797 -85.349 64.716 -90.143 67.634 C-91.131 68.234 -92.118 68.835 -93.135 69.453 C-99.195 73.14 -105.241 76.846 -111.272 80.579 C-113.583 81.989 -115.901 83.378 -118.233 84.751 C-118.904 85.147 -119.575 85.544 -120.266 85.953 C-121.553 86.711 -122.842 87.466 -124.134 88.215 C-129.986 91.671 -135.065 95.279 -138.581 101.259 C-139.06 102.049 -139.54 102.839 -140.034 103.653 C-143.399 110.899 -143.708 118.082 -143.956 125.946 C-143.994 126.959 -144.033 127.972 -144.073 129.016 C-144.166 131.493 -144.252 133.969 -144.331 136.446 C-145.081 136.605 -145.831 136.763 -146.604 136.927 C-157.02 139.301 -165.02 142.716 -172.835 150.091 C-174.331 151.446 -174.331 151.446 -175.331 151.446 C-175.407 144.081 -175.46 136.716 -175.496 129.351 C-175.511 126.849 -175.531 124.347 -175.557 121.844 C-175.594 118.235 -175.611 114.626 -175.624 111.016 C-175.639 109.909 -175.655 108.801 -175.671 107.66 C-175.673 96.007 -172.635 85.782 -165.081 76.759 C-158.689 71.384 -151.387 67.23 -144.206 63.009 C-135.573 57.886 -127.16 52.472 -118.775 46.955 C-110.756 41.69 -102.609 36.668 -94.401 31.705 C-81.938 24.127 -69.654 16.248 -57.331 8.446 C-56.733 8.068 -56.135 7.689 -55.518 7.299 C-54.018 6.349 -52.518 5.398 -51.018 4.446 C-50.179 3.915 -49.34 3.384 -48.475 2.837 C-46.684 1.675 -44.938 0.444 -43.206 -0.804 C-30.624 -8.463 -12.286 -8.191 0 0 Z " fill="#FFC400" transform="translate(357.330810546875,281.553955078125)"/>
<path d="M0 0 C0.463 -0.007 0.463 -0.007 2.809 -0.043 C7.693 0.366 10.363 1.721 13.617 5.336 C16.519 8.926 18.644 12.689 20.688 16.812 C24.04 23.355 27.566 29.763 31.25 36.125 C36.028 44.409 40.647 52.772 45.188 61.188 C45.792 62.304 46.396 63.42 47.018 64.57 C47.582 65.619 48.146 66.669 48.727 67.75 C49.226 68.679 49.726 69.609 50.241 70.566 C51.562 73.188 51.562 73.188 52.615 76.027 C52.928 76.74 53.24 77.453 53.562 78.188 C54.222 78.188 54.882 78.188 55.562 78.188 C55.774 77.41 55.985 76.633 56.203 75.832 C58.057 70.863 60.663 66.459 63.312 61.875 C64.493 59.812 65.672 57.748 66.852 55.684 C67.463 54.616 68.074 53.549 68.704 52.449 C71.136 48.181 73.531 43.892 75.923 39.602 C78.792 34.457 81.675 29.321 84.562 24.188 C84.83 23.712 84.83 23.712 86.184 21.304 C87.677 18.657 89.18 16.015 90.688 13.375 C91.125 12.599 91.562 11.822 92.012 11.022 C97.216 1.97 97.216 1.97 102.562 0.188 C105.055 0.066 107.508 0.002 110 0 C111.319 -0.014 112.637 -0.028 113.996 -0.043 C119.019 0.282 119.019 0.282 121.562 2.188 C123.484 5.296 123.816 7.68 123.83 11.304 C123.834 11.821 123.834 11.821 123.856 14.435 C123.855 14.999 123.855 14.999 123.853 17.853 C123.86 19.046 123.866 20.238 123.873 21.466 C123.889 24.733 123.896 27.999 123.897 31.266 C123.898 33.307 123.903 35.349 123.908 37.391 C123.927 44.516 123.935 51.641 123.933 58.766 C123.932 65.404 123.953 72.042 123.985 78.68 C124.011 84.383 124.021 90.086 124.02 95.789 C124.02 99.193 124.025 102.598 124.047 106.002 C124.066 109.799 124.06 113.595 124.048 117.392 C124.06 118.518 124.071 119.644 124.082 120.804 C124.021 128.422 124.021 128.422 121.655 132.375 C117.8 135.714 113.664 135.475 108.746 135.402 C105.656 135.098 103.916 134.195 101.562 132.188 C98.502 128.105 98.12 124.595 98.13 119.643 C98.125 119.272 98.125 119.272 98.099 117.395 C98.069 114.955 98.06 112.515 98.051 110.074 C98.034 108.377 98.016 106.681 97.996 104.984 C97.949 100.527 97.919 96.07 97.893 91.613 C97.863 87.062 97.817 82.51 97.771 77.959 C97.685 69.035 97.618 60.111 97.562 51.188 C97.134 51.959 96.705 52.731 96.264 53.526 C94.651 56.431 93.038 59.335 91.425 62.239 C90.731 63.488 90.037 64.738 89.344 65.987 C79.767 83.234 79.767 83.234 75.551 90.656 C74.143 93.141 72.772 95.642 71.418 98.156 C71.064 98.802 70.71 99.448 70.345 100.114 C69.384 101.87 68.434 103.632 67.484 105.395 C65.37 108.468 63.978 109.729 60.562 111.188 C57.406 111.621 57.406 111.621 54.062 111.625 C52.959 111.644 51.856 111.664 50.719 111.684 C46.661 111.046 45.392 110.191 42.562 107.188 C40.342 103.814 38.422 100.3 36.5 96.75 C35.352 94.674 34.204 92.599 33.055 90.523 C32.476 89.47 31.896 88.416 31.3 87.331 C28.622 82.485 25.876 77.679 23.125 72.875 C22.654 72.048 22.183 71.22 21.697 70.367 C19.306 66.18 16.875 62.022 14.39 57.89 C13.858 57.005 13.326 56.12 12.778 55.208 C12.377 54.541 11.976 53.874 11.562 53.188 C11.559 54.101 11.555 55.015 11.551 55.956 C11.514 64.578 11.457 73.2 11.379 81.822 C11.339 86.254 11.307 90.686 11.292 95.119 C11.276 99.398 11.242 103.677 11.194 107.957 C11.179 109.587 11.171 111.218 11.171 112.849 C11.168 115.137 11.141 117.425 11.108 119.713 C11.1 121.015 11.091 122.316 11.081 123.657 C10.475 127.784 9.159 129.96 6.562 133.188 C2.501 135.67 -1.809 135.629 -6.438 135.188 C-9.828 134.359 -11.016 133.778 -13.05 130.93 C-14.541 127.983 -14.818 126.261 -14.832 122.988 C-14.843 121.962 -14.855 120.936 -14.866 119.879 C-14.863 118.764 -14.86 117.649 -14.857 116.5 C-14.866 115.317 -14.874 114.135 -14.883 112.916 C-14.902 109.681 -14.908 106.445 -14.906 103.21 C-14.906 100.506 -14.915 97.802 -14.923 95.098 C-14.942 88.719 -14.945 82.34 -14.938 75.961 C-14.932 69.385 -14.955 62.809 -14.992 56.232 C-15.022 50.58 -15.034 44.929 -15.03 39.277 C-15.028 35.903 -15.033 32.53 -15.058 29.157 C-15.08 25.396 -15.07 21.636 -15.053 17.875 C-15.066 16.76 -15.079 15.645 -15.093 14.496 C-15.01 6.942 -15.01 6.942 -12.022 3.007 C-7.966 0.152 -4.89 0.034 0 0 Z " fill="#141C2D" transform="translate(583.4375,407.8125)"/>
<path d="M0 0 C1.025 -0.013 2.051 -0.026 3.107 -0.039 C3.662 -0.04 3.662 -0.04 6.469 -0.045 C7.615 -0.052 8.761 -0.059 9.942 -0.066 C12.373 -0.076 14.804 -0.08 17.235 -0.08 C20.927 -0.084 24.617 -0.121 28.309 -0.159 C30.674 -0.165 33.04 -0.169 35.406 -0.17 C36.499 -0.185 37.592 -0.199 38.719 -0.214 C49.707 -0.15 59.509 3.134 67.969 10.291 C74.966 17.671 77.939 26.189 77.969 36.291 C77.384 45.176 74.536 53.175 67.797 59.248 C65.897 60.686 63.989 62.029 61.969 63.291 C62.682 63.668 63.394 64.046 64.129 64.435 C72.415 69.197 77.376 74.564 80.836 83.541 C81.446 85.814 81.758 87.946 81.969 90.291 C82.062 91.278 82.154 92.265 82.25 93.283 C82.773 104.186 79.862 113.311 72.844 121.728 C63.258 131.521 52.311 134.442 38.997 134.645 C37.899 134.651 36.802 134.656 35.672 134.662 C34.52 134.671 33.368 134.68 32.182 134.689 C29.761 134.703 27.341 134.712 24.92 134.716 C21.216 134.728 17.513 134.777 13.809 134.828 C11.451 134.837 9.092 134.844 6.734 134.849 C5.629 134.869 4.524 134.888 3.385 134.908 C-4.236 134.863 -4.236 134.863 -8.204 132.006 C-10.831 128.102 -11.156 125.007 -11.172 120.363 C-11.177 119.372 -11.183 118.381 -11.189 117.36 C-11.19 116.279 -11.191 115.198 -11.192 114.084 C-11.197 112.94 -11.202 111.797 -11.207 110.619 C-11.222 106.834 -11.229 103.048 -11.234 99.263 C-11.24 96.635 -11.246 94.007 -11.252 91.38 C-11.261 86.573 -11.267 81.767 -11.27 76.961 C-11.275 69.891 -11.292 62.822 -11.321 55.752 C-11.345 49.624 -11.353 43.495 -11.355 37.367 C-11.358 34.761 -11.366 32.156 -11.379 29.55 C-11.396 25.909 -11.394 22.268 -11.388 18.627 C-11.397 17.548 -11.406 16.468 -11.416 15.357 C-11.364 6.126 -11.364 6.126 -8.031 2.291 C-4.764 0.112 -3.789 0.032 0 0 Z M13.969 23.291 C13.969 33.521 13.969 43.751 13.969 54.291 C23.994 56.296 38.088 57.231 47.469 52.541 C50.838 49.508 52.724 46.93 53.402 42.388 C53.41 36.21 53.362 32.05 48.969 27.291 C44.682 23.523 41.145 23.168 35.551 23.193 C34.421 23.195 33.292 23.198 32.128 23.2 C30.694 23.21 29.259 23.219 27.781 23.228 C25.502 23.238 25.502 23.238 13.969 23.291 Z M13.969 76.291 C13.969 87.841 13.969 99.391 13.969 111.291 C16.444 111.332 16.444 111.332 28.969 111.541 C30.514 111.577 32.06 111.613 33.652 111.651 C42.486 111.722 48.815 111.341 55.469 104.853 C58.188 98.395 57.985 91.34 55.781 84.728 C52.229 79.951 48.649 77.861 42.969 76.291 C39.625 76.063 39.625 76.063 36.039 76.095 C35.458 76.098 35.458 76.098 32.516 76.11 C31.786 76.119 31.786 76.119 28.094 76.166 C25.763 76.186 25.763 76.186 13.969 76.291 Z " fill="#FFC400" transform="translate(1260.03125,407.70947265625)"/>
<path d="M0 0 C6.844 5.843 11.722 11.125 12.809 20.336 C13.412 30.761 8.203 38.685 1.562 46.25 C1.074 46.833 0.585 47.415 0.082 48.016 C-14.06 63.575 -37.305 73.235 -58.031 74.629 C-88.549 75.812 -113.965 62.34 -139.438 47.25 C-137.972 42.854 -134.527 41.903 -130.625 39.875 C-123.731 36.179 -117.137 32.205 -110.625 27.875 C-96.712 18.695 -82.384 10.509 -67.375 3.25 C-66.46 2.805 -65.545 2.36 -64.602 1.902 C-45.581 -7.093 -18.801 -13.107 0 0 Z " fill="#FFC400" transform="translate(475.4375,432.75)"/>
<path d="M0 0 C-2.725 16.066 -9.909 30.592 -19 44 C-19.606 44.923 -20.212 45.846 -20.836 46.797 C-25.728 53.796 -31.491 59.768 -37.5 65.812 C-38.295 66.613 -39.09 67.414 -39.909 68.239 C-43.745 72.028 -47.666 75.713 -51.781 79.199 C-52.473 79.789 -53.164 80.379 -53.877 80.987 C-56 82 -56 82 -58.554 81.352 C-60.808 80.106 -62.49 78.929 -64.348 77.164 C-64.947 76.601 -65.546 76.037 -66.164 75.457 C-66.477 75.155 -66.477 75.155 -68.062 73.625 C-68.72 72.998 -69.378 72.371 -70.055 71.725 C-71.4 70.438 -72.742 69.147 -74.08 67.853 C-75.818 66.176 -77.572 64.518 -79.332 62.863 C-96.137 46.854 -110.536 23.22 -114 0 C-79.311 -12.278 -34.283 -17.141 0 0 Z " fill="#141C2D" transform="translate(392,519)"/>
<path d="M0 0 C10.893 7.594 16.496 17.578 19.199 30.352 C19.891 35.18 20.113 39.975 18.676 44.68 C16.518 47.422 15.363 48.561 11.879 49.161 C10.804 49.152 9.729 49.143 8.622 49.134 C7.401 49.133 6.18 49.133 4.922 49.133 C3.609 49.112 2.295 49.092 0.941 49.07 C-0.421 49.063 -1.782 49.057 -3.144 49.053 C-6.722 49.038 -10.299 48.999 -13.876 48.954 C-17.529 48.913 -21.183 48.895 -24.836 48.875 C-31.999 48.832 -39.162 48.764 -46.324 48.68 C-45.874 49.947 -45.417 51.212 -44.957 52.477 C-44.703 53.181 -44.449 53.886 -44.188 54.612 C-42.153 59.482 -38.979 62.618 -34.387 65.055 C-26.78 68.077 -17.758 68.073 -10.199 64.93 C-7.634 63.607 -6.178 62.529 -4.137 60.43 C-2.324 58.68 -2.324 58.68 0.426 57.992 C5.384 59.041 8.308 62.005 11.676 65.68 C13.363 68.305 13.363 68.305 13.676 70.68 C11.09 77.697 3.387 82.668 -3.074 85.855 C-15.276 90.325 -30.601 90.833 -42.723 85.934 C-56.838 79.13 -64.358 69.999 -70.324 55.68 C-73.516 44.657 -72.734 29.729 -67.324 19.68 C-67.081 19.214 -67.081 19.214 -65.852 16.859 C-59.727 6.231 -50.378 -0.953 -38.656 -4.398 C-26.114 -7.407 -11.265 -6.399 0 0 Z M-41.887 20.992 C-44.732 24.479 -44.948 26.863 -46.324 31.68 C-32.794 31.68 -19.264 31.68 -5.324 31.68 C-6.541 23.159 -6.541 23.159 -10.324 18.68 C-19.982 11.533 -33.413 11.859 -41.887 20.992 Z " fill="#141C2D" transform="translate(795.32421875,455.3203125)"/>
<path d="M0 0 C0.33 0 0.66 0 1 0 C1.128 7.31 1.215 14.619 1.275 21.93 C1.3 24.412 1.334 26.894 1.377 29.375 C1.922 61.248 1.922 61.248 -10 74 C-15.846 79.919 -22.671 84.015 -29.851 88.106 C-31.797 89.214 -33.736 90.333 -35.674 91.455 C-38.267 92.956 -40.862 94.455 -43.458 95.951 C-48.022 98.586 -52.549 101.281 -57.062 104 C-57.832 104.463 -58.601 104.926 -59.394 105.403 C-61.931 106.933 -64.466 108.466 -67 110 C-68.066 110.644 -69.131 111.289 -70.229 111.953 C-83.151 119.767 -96.047 127.621 -108.874 135.592 C-114.599 139.146 -120.353 142.648 -126.146 146.089 C-129.416 148.034 -132.628 150.044 -135.812 152.125 C-136.864 152.744 -137.916 153.362 -139 154 C-139.66 153.67 -140.32 153.34 -141 153 C-137.683 142.837 -133.353 133.369 -128.438 123.875 C-127.884 122.797 -127.33 121.719 -126.759 120.608 C-121.607 110.809 -116.876 105.477 -107.312 99.812 C-106.847 99.531 -106.847 99.531 -104.493 98.106 C-102.583 96.95 -100.669 95.799 -98.754 94.652 C-95.493 92.696 -92.251 90.712 -89.011 88.724 C-83.864 85.566 -78.706 82.429 -73.547 79.293 C-69.806 77.018 -66.075 74.729 -62.346 72.436 C-59.868 70.919 -57.379 69.421 -54.891 67.922 C-53.197 66.886 -51.505 65.85 -49.812 64.812 C-49.035 64.35 -48.257 63.887 -47.455 63.41 C-39.775 58.659 -33.859 52.935 -31.441 44.051 C-31.075 41.516 -30.977 39.335 -31.027 36.793 C-31.089 32.337 -31.002 28.367 -30 24 C-27.256 21.526 -24.799 20.563 -21.34 19.301 C-12.83 15.987 -6.454 8.947 -1.242 1.652 C-0.832 1.107 -0.422 0.562 0 0 Z " fill="#FFC400" transform="translate(487,479)"/>
<path d="M0 0 C2.568 2.521 4.953 4.937 7.125 7.812 C12.221 14.011 19.1 18.411 26.625 20.938 C29.105 22.078 29.105 22.078 31 24 C31.992 29.019 31.967 33.879 31.956 38.978 C32.117 46.382 34.995 52.309 40.066 57.594 C46.297 62.704 53.428 66.514 60.406 70.503 C64.292 72.746 68.116 75.087 71.938 77.438 C72.662 77.881 73.387 78.325 74.134 78.782 C80.866 82.907 87.589 87.049 94.291 91.223 C98.396 93.78 102.508 96.313 106.676 98.766 C107.037 98.982 107.037 98.982 108.867 100.076 C110.187 100.865 111.515 101.641 112.852 102.403 C122.098 107.978 126.333 117.897 131.125 127.188 C131.732 128.33 132.339 129.473 132.965 130.65 C136.903 138.24 139.783 145.743 142 154 C138.662 152.733 135.616 151.303 132.543 149.488 C131.69 148.986 130.838 148.483 129.96 147.965 C129.045 147.42 128.13 146.874 127.188 146.312 C126.704 146.026 126.704 146.026 124.257 144.574 C116.156 139.742 108.159 134.752 100.174 129.73 C89.92 123.292 79.539 117.076 69.141 110.875 C66.007 109.004 62.876 107.128 59.746 105.25 C58.714 104.631 57.682 104.011 56.619 103.373 C54.549 102.13 52.481 100.886 50.413 99.64 C45.013 96.391 39.598 93.175 34.152 90.004 C33.028 89.344 31.904 88.684 30.746 88.004 C28.61 86.75 26.468 85.506 24.32 84.273 C15.328 78.973 8.53 73.295 4.062 63.75 C3.497 62.569 2.931 61.388 2.348 60.172 C0.495 55.811 -0.125 52.418 -0.114 47.681 C-0.113 46.62 -0.113 45.559 -0.113 44.466 C-0.108 43.327 -0.103 42.189 -0.098 41.016 C-0.097 40.43 -0.097 40.43 -0.093 37.468 C-0.088 33.729 -0.075 29.989 -0.062 26.25 C-0.057 23.715 -0.053 21.18 -0.049 18.645 C-0.038 12.43 -0.021 6.215 0 0 Z " fill="#FFC400" transform="translate(182,479)"/>
<path d="M0 0 C0.763 0.846 1.526 1.691 2.312 2.562 C2.793 3.028 3.274 3.493 3.77 3.973 C12.138 12.595 14.623 24.833 14.453 36.457 C13.929 48.039 9.226 60.537 1.082 69.047 C-11.137 79.513 -24.816 82.876 -40.563 81.781 C-52.347 80.568 -61.944 74.849 -70 66.312 C-79.157 54.687 -81.722 42.018 -80.688 27.562 C-78.423 14.012 -71.618 2.331 -60.438 -5.75 C-40.971 -17.853 -16.819 -15.254 0 0 Z M-51.688 17.562 C-56.864 24.922 -57.298 31.775 -56.688 40.562 C-55.482 46.623 -52.347 51.535 -47.688 55.562 C-41.424 59.701 -35.055 60.479 -27.688 59.562 C-21.103 57.512 -15.933 53.976 -12.375 48 C-8.972 41.067 -8.265 33.263 -10.523 25.801 C-13.773 18.681 -18.583 13.571 -25.625 10.125 C-35.9 8.238 -44.149 10.024 -51.688 17.562 Z " fill="#141C2D" transform="translate(1117.6875,462.4375)"/>
<path d="M0 0 C8.243 7.681 12.084 17.987 13.095 29.02 C13.204 32.193 13.229 35.353 13.211 38.527 C13.214 39.675 13.217 40.822 13.22 42.005 C13.222 44.407 13.216 46.81 13.204 49.212 C13.187 52.89 13.204 56.566 13.223 60.244 C13.221 62.589 13.217 64.933 13.211 67.277 C13.217 68.373 13.223 69.469 13.229 70.598 C13.225 71.109 13.225 71.109 13.201 73.695 C13.198 74.589 13.196 75.484 13.193 76.405 C12.583 80.461 10.775 83.117 7.688 85.75 C3.666 87.411 0.105 87.522 -4.188 86.938 C-7.822 85.313 -8.962 84.276 -11.188 80.938 C-11.446 78.86 -11.446 78.86 -11.459 76.441 C-11.469 75.533 -11.479 74.624 -11.49 73.688 C-11.492 72.707 -11.494 71.726 -11.496 70.715 C-11.521 68.628 -11.547 66.542 -11.572 64.455 C-11.601 61.173 -11.625 57.89 -11.644 54.608 C-11.666 51.435 -11.705 48.263 -11.746 45.09 C-11.746 44.123 -11.746 43.156 -11.746 42.159 C-11.842 35.513 -12.205 27.707 -16.498 22.282 C-20.168 18.998 -24.178 16.986 -29.133 16.906 C-34.934 17.347 -38.865 19.532 -42.938 23.75 C-46.611 30.178 -46.456 36.745 -46.426 43.945 C-46.441 46.087 -46.457 48.229 -46.475 50.371 C-46.491 53.727 -46.5 57.082 -46.493 60.437 C-46.49 63.69 -46.518 66.942 -46.551 70.195 C-46.541 71.197 -46.53 72.2 -46.52 73.232 C-46.586 77.939 -46.631 80.202 -49.54 84.046 C-54.161 87.347 -58.674 87.633 -64.188 86.938 C-69.828 84.017 -69.828 84.017 -71.188 79.938 C-71.304 77.46 -71.365 75.01 -71.38 72.532 C-71.389 71.78 -71.397 71.029 -71.405 70.254 C-71.43 67.767 -71.447 65.28 -71.461 62.793 C-71.466 61.943 -71.472 61.092 -71.477 60.216 C-71.504 55.716 -71.523 51.216 -71.538 46.716 C-71.551 42.994 -71.579 39.272 -71.62 35.551 C-71.669 31.054 -71.694 26.557 -71.701 22.06 C-71.708 20.349 -71.723 18.637 -71.747 16.925 C-71.778 14.527 -71.778 12.13 -71.771 9.731 C-71.787 9.028 -71.804 8.325 -71.821 7.601 C-71.773 3.833 -71.148 1.419 -68.862 -1.502 C-65.484 -4.736 -63.802 -4.844 -59.188 -4.75 C-54.678 -4.552 -52.685 -4.391 -48.875 -1.875 C-47.238 0.853 -46.458 2.784 -46.188 5.938 C-45.847 5.479 -45.507 5.02 -45.156 4.547 C-34 -9.577 -14.301 -9.254 0 0 Z " fill="#141C2D" transform="translate(1215.1875,456.0625)"/>
<path d="M0 0 C9.017 5.251 13.955 13.449 17.039 23.188 C17.875 26.741 18.182 30.061 18.232 33.709 C18.248 34.79 18.264 35.872 18.281 36.986 C18.325 41.902 18.366 46.818 18.389 51.734 C18.406 54.326 18.433 56.919 18.471 59.511 C18.526 63.256 18.548 67 18.562 70.746 C18.585 71.902 18.608 73.059 18.631 74.25 C18.608 83.215 18.608 83.215 15.624 86.91 C12.109 90.007 12.109 90.007 9.039 90.188 C7.925 90.27 6.812 90.352 5.664 90.438 C1.654 90.161 -0.605 89.373 -3.961 87.188 C-5.839 84.228 -6.214 81.926 -6.232 78.454 C-6.242 77.519 -6.253 76.584 -6.263 75.621 C-6.265 74.617 -6.267 73.613 -6.27 72.578 C-6.295 70.44 -6.32 68.302 -6.346 66.164 C-6.374 62.802 -6.398 59.441 -6.417 56.079 C-6.439 52.829 -6.478 49.579 -6.52 46.328 C-6.52 45.332 -6.52 44.336 -6.52 43.31 C-6.623 35.966 -7.513 30.151 -12.336 24.312 C-16.586 20.872 -19.406 19.979 -24.836 20.25 C-30.007 20.943 -33.433 22.308 -36.961 26.188 C-40.833 33.132 -41.509 39.674 -41.395 47.488 C-41.404 49.62 -41.414 51.753 -41.424 53.885 C-41.415 57.207 -41.398 60.529 -41.376 63.852 C-41.362 67.085 -41.377 70.317 -41.395 73.551 C-41.378 74.544 -41.362 75.536 -41.345 76.559 C-41.379 81.248 -41.409 83.458 -44.309 87.29 C-48.629 90.381 -52.769 90.776 -57.961 90.188 C-61.182 88.647 -64.288 87.019 -65.577 83.51 C-66.103 80.328 -66.097 77.246 -66.106 74.02 C-66.11 73.305 -66.113 72.591 -66.116 71.855 C-66.126 69.498 -66.128 67.142 -66.129 64.785 C-66.132 63.144 -66.135 61.502 -66.139 59.861 C-66.145 56.422 -66.147 52.983 -66.146 49.544 C-66.146 45.141 -66.16 40.739 -66.177 36.336 C-66.188 32.947 -66.19 29.557 -66.19 26.168 C-66.191 24.545 -66.195 22.921 -66.203 21.298 C-66.213 19.027 -66.21 16.756 -66.204 14.485 C-66.205 13.193 -66.207 11.902 -66.208 10.571 C-65.903 6.399 -65.169 3.466 -62.273 0.402 C-59.089 -1.271 -56.543 -1.246 -52.961 -1.25 C-51.744 -1.269 -50.527 -1.289 -49.273 -1.309 C-45.411 -0.73 -44.256 0.085 -41.961 3.188 C-41.211 6.438 -41.211 6.438 -40.961 9.188 C-40.198 8.136 -39.435 7.084 -38.648 6 C-29.235 -4.746 -12.483 -6.012 0 0 Z " fill="#141C2D" transform="translate(895.9609375,452.8125)"/>
<path d="M0 0 C2.378 3.603 2.189 4.64 1.938 8.812 C1.646 15.089 3.42 17.804 7.238 22.613 C11.505 28.488 13.326 34.927 13.062 42.125 C13.897 42.041 14.731 41.957 15.59 41.871 C22.3 41.264 28.4 41.109 35.062 42.125 C35.145 40.826 35.228 39.526 35.312 38.188 C36.135 30.984 38.96 25.524 43.312 19.812 C46.642 15.112 46.253 11.391 45.969 5.805 C46.062 3.125 46.062 3.125 48.125 0 C51.553 -2.188 54.017 -3.317 58.062 -3.875 C61.661 -2.796 64.144 -1.701 66.938 0.812 C69.257 5.581 69.608 9.52 67.938 14.438 C65.806 17.493 64.488 18.679 61.062 20.125 C59.784 20.063 58.505 20.001 57.188 19.938 C55.125 20.121 55.125 20.121 53.062 21.125 C47.711 28.578 44.973 37.024 44.062 46.125 C44.887 46.331 45.712 46.538 46.562 46.75 C56.772 50.761 62.418 58.964 67.855 68.156 C69.062 71.125 69.062 71.125 69.195 73.723 C67.463 77.397 64.385 78.722 60.938 80.562 C59.397 81.423 57.858 82.287 56.32 83.152 C55.483 83.62 54.645 84.088 53.782 84.57 C47.701 88.047 41.775 91.791 35.82 95.478 C34.884 96.053 33.948 96.627 32.984 97.219 C32.57 97.475 32.57 97.475 30.472 98.771 C29.677 99.218 28.882 99.665 28.062 100.125 C27.261 100.58 26.459 101.036 25.633 101.505 C23.062 102.125 23.062 102.125 20.178 100.95 C19.133 100.291 18.088 99.632 17.012 98.953 C16.44 98.6 15.868 98.246 15.278 97.882 C13.424 96.731 11.587 95.554 9.75 94.375 C8.488 93.58 7.224 92.786 5.96 91.993 C4.077 90.81 2.195 89.626 0.318 88.433 C-3.202 86.196 -6.751 84.041 -10.375 81.973 C-11.131 81.533 -11.888 81.094 -12.667 80.642 C-14.02 79.859 -15.383 79.093 -16.757 78.347 C-18.52 77.301 -18.52 77.301 -20.938 75.125 C-21.079 66.851 -14.209 58.756 -8.875 52.887 C-5.476 49.796 -0.698 46.125 4.062 46.125 C0.991 27.672 0.991 27.672 -4.938 21.125 C-7.542 20.115 -9.822 19.768 -12.594 19.484 C-14.938 19.125 -14.938 19.125 -18 17 C-20.455 13.357 -21.238 10.503 -20.938 6.125 C-19.437 1.939 -17.813 -0.644 -13.938 -2.875 C-8.987 -5.094 -4.273 -2.727 0 0 Z " fill="#FFC400" transform="translate(310.9375,365.875)"/>
<path d="M0 0 C7.848 6.867 13.328 16.726 14.117 27.266 C14.157 28.694 14.191 30.122 14.219 31.551 C14.256 32.267 14.294 32.983 14.332 33.721 C14.389 37.108 14.217 39.145 12.08 41.825 C7.048 44.605 2.194 44.105 -3.457 44.004 C-4.649 43.998 -5.84 43.993 -7.068 43.987 C-10.868 43.964 -14.668 43.914 -18.469 43.863 C-21.048 43.843 -23.626 43.825 -26.205 43.809 C-32.522 43.765 -38.839 43.698 -45.156 43.613 C-44.711 45.045 -44.258 46.474 -43.801 47.902 C-43.675 48.3 -43.675 48.3 -43.038 50.315 C-41.3 54.845 -38.637 57.72 -34.449 60.246 C-28.093 62.885 -19.97 63.082 -13.508 60.594 C-10.855 58.962 -8.736 57.237 -6.617 54.957 C-5.156 53.613 -5.156 53.613 -2.531 53.426 C2.474 55.187 6.639 58.361 9.844 62.613 C9.611 67.421 7.241 70.402 3.844 73.613 C-4.932 80.796 -13.178 84.198 -24.531 84.051 C-25.361 84.042 -26.191 84.034 -27.046 84.026 C-39.109 83.695 -47.172 79.208 -55.836 71.027 C-65.867 60.373 -68.808 47.035 -68.465 32.938 C-67.812 20.635 -62.329 9.16 -53.344 0.738 C-37.313 -12.117 -16.142 -12.908 0 0 Z M-41.031 17.488 C-43.156 20.613 -43.156 20.613 -44.156 26.613 C-31.946 26.613 -19.736 26.613 -7.156 26.613 C-10.534 16.479 -10.534 16.479 -13.719 14.113 C-14.018 13.881 -14.018 13.881 -15.535 12.707 C-24.011 6.989 -34.625 10.592 -41.031 17.488 Z " fill="#FFC400" transform="translate(1418.15625,459.38671875)"/>
<path d="M0 0 C7.205 6.835 13.04 16.918 13.621 26.953 C13.638 28.51 13.639 30.068 13.625 31.625 C13.645 32.414 13.665 33.203 13.686 34.016 C13.685 34.397 13.685 34.397 13.684 36.328 C13.685 37.01 13.687 37.693 13.689 38.396 C12.95 41.312 11.486 42.478 9.188 44.375 C6.656 44.856 6.656 44.856 3.776 44.829 C2.696 44.829 1.615 44.828 0.501 44.828 C-0.659 44.808 -1.82 44.787 -3.016 44.766 C-4.209 44.76 -5.401 44.754 -6.631 44.748 C-10.442 44.726 -14.252 44.676 -18.062 44.625 C-20.646 44.605 -23.229 44.587 -25.812 44.57 C-32.146 44.526 -38.479 44.459 -44.812 44.375 C-44.204 46.147 -43.586 47.916 -42.965 49.684 C-42.622 50.669 -42.279 51.654 -41.926 52.67 C-40.157 56.968 -37.72 59.438 -33.578 61.473 C-26.991 63.622 -18.552 63.68 -12.25 60.625 C-9.916 59.248 -8.225 57.844 -6.188 56 C-3.812 54.375 -3.812 54.375 -0.938 54.75 C3.817 57.222 7.919 60.019 10.5 64.812 C9.968 69.172 7.391 71.529 4.188 74.375 C-7.936 83.454 -18.899 85.871 -33.812 84.375 C-45.295 81.99 -53.983 74.676 -60.812 65.375 C-68.091 52.771 -69.615 38.492 -66.695 24.305 C-62.768 11.271 -55.991 2.303 -44.16 -4.406 C-30.227 -11.639 -12.377 -9.532 0 0 Z M-41.516 19.363 C-42.812 21.375 -42.812 21.375 -44.812 27.375 C-32.602 27.375 -20.392 27.375 -7.812 27.375 C-8.931 19.547 -9.824 17.632 -15.875 13.062 C-25.503 7.958 -34.903 11.737 -41.516 19.363 Z " fill="#FFC400" transform="translate(1507.8125,458.625)"/>
<path d="M0 0 C2.636 1.028 3.87 2.038 6 4 C6.961 6.883 7.117 8.677 7.098 11.668 C7.094 12.561 7.091 13.453 7.088 14.373 C7.084 14.837 7.084 14.837 7.062 17.188 C7.058 18.128 7.053 19.068 7.049 20.037 C7.037 22.358 7.021 24.679 7 27 C7.585 26.979 8.17 26.958 8.772 26.937 C11.431 26.853 14.09 26.801 16.75 26.75 C17.67 26.716 18.591 26.683 19.539 26.648 C26.272 26.551 26.272 26.551 29.609 28.609 C31.423 31.728 31.533 33.903 31.5 37.5 C31.505 38.062 31.505 38.062 31.531 40.906 C31 44 31 44 29.609 46.359 C25.536 48.921 21.471 48.677 16.75 48.75 C16.282 48.765 16.282 48.765 13.914 48.84 C11.609 48.91 9.306 48.963 7 49 C6.891 60.427 6.936 71.832 7.438 83.25 C7.477 84.196 7.516 85.141 7.556 86.116 C7.577 86.553 7.577 86.553 7.684 88.766 C7.702 89.151 7.702 89.151 7.795 91.103 C8 93 8 93 9 95 C14.224 96.136 19.222 95.995 24.547 95.742 C27 96 27 96 28.766 97.383 C31.183 100.55 31.221 102.937 31.312 106.875 C31.331 107.4 31.331 107.4 31.426 110.055 C30.898 113.703 29.881 114.776 27 117 C17.759 120.36 6.286 120.315 -3 117 C-9.582 113.456 -14.065 108.398 -16.39 101.295 C-18.282 94.18 -18.144 86.588 -18.098 79.273 C-18.096 78.4 -18.095 77.526 -18.093 76.626 C-18.088 73.876 -18.075 71.125 -18.062 68.375 C-18.057 66.493 -18.053 64.612 -18.049 62.73 C-18.038 58.154 -18.021 53.577 -18 49 C-18.374 48.987 -18.374 48.987 -20.266 48.922 C-28.26 48.461 -28.26 48.461 -31.656 46.344 C-33.428 43.253 -33.533 41.052 -33.5 37.5 C-33.505 36.938 -33.505 36.938 -33.531 34.094 C-33 31 -33 31 -31.359 28.609 C-28.3 26.522 -26.419 26.59 -22.75 26.75 C-21.672 26.786 -20.595 26.822 -19.484 26.859 C-19.074 26.883 -19.074 26.883 -17 27 C-17.021 26.355 -17.042 25.709 -17.063 25.044 C-17.147 22.113 -17.199 19.182 -17.25 16.25 C-17.267 15.742 -17.267 15.742 -17.352 13.172 C-17.451 5.63 -17.451 5.63 -15.109 2.359 C-10.277 -0.755 -5.644 -0.588 0 0 Z " fill="#141C2D" transform="translate(956,425)"/>
<path d="M0 0 C-1.75 8.823 -4.268 16.814 -8 25 C-12.471 24.393 -16.353 23.235 -20.562 21.625 C-46.806 12.147 -75.428 12.938 -101.047 24.266 C-103 25 -103 25 -106 25 C-107.207 22.697 -108.157 20.546 -109.062 18.125 C-109.326 17.446 -109.589 16.767 -109.86 16.068 C-111.844 10.795 -113.166 5.574 -114 0 C-79.311 -12.278 -34.283 -17.141 0 0 Z " fill="#141C2D" transform="translate(392,519)"/>
<path d="M0 0 C0.556 -0.02 0.556 -0.02 3.371 -0.121 C7.642 0.626 8.888 2.061 11.562 5.438 C12.053 8.253 12.239 10.462 12.194 13.27 C12.201 14.043 12.208 14.815 12.215 15.612 C12.232 18.159 12.213 20.703 12.191 23.25 C12.192 25.024 12.195 26.799 12.199 28.573 C12.202 32.289 12.187 36.004 12.159 39.72 C12.125 44.478 12.131 49.235 12.15 53.994 C12.161 57.657 12.152 61.32 12.137 64.983 C12.132 66.737 12.132 68.492 12.138 70.246 C12.144 72.7 12.123 75.152 12.096 77.605 C12.102 78.328 12.109 79.05 12.116 79.794 C12.049 83.343 11.627 85.336 9.717 88.365 C5.925 92.013 1.995 91.718 -2.996 91.652 C-6.225 91.368 -8.004 90.576 -10.438 88.438 C-13.498 84.317 -13.816 81.268 -13.826 76.188 C-13.831 75.477 -13.836 74.765 -13.842 74.033 C-13.855 71.691 -13.846 69.35 -13.836 67.008 C-13.838 65.373 -13.841 63.737 -13.845 62.102 C-13.849 58.678 -13.843 55.253 -13.829 51.829 C-13.812 47.452 -13.821 43.075 -13.839 38.699 C-13.85 35.322 -13.847 31.945 -13.839 28.568 C-13.837 26.955 -13.839 25.342 -13.846 23.729 C-13.854 21.468 -13.842 19.207 -13.826 16.946 C-13.823 15.662 -13.821 14.378 -13.818 13.055 C-13.375 8.846 -12.349 6.193 -10.438 2.438 C-7.3 -0.041 -3.905 0.077 0 0 Z " fill="#141C2D" transform="translate(1013.4375,451.5625)"/>
<path d="M0 0 C-1.386 4.67 -3.328 8.768 -5.812 12.938 C-6.143 13.539 -6.474 14.14 -6.814 14.76 C-7.832 16.465 -7.832 16.465 -10 19 C-12.234 19.035 -12.234 19.035 -15 18 C-16.33 17.607 -17.662 17.223 -18.996 16.844 C-21.224 16.173 -23.449 15.496 -25.674 14.816 C-43.906 9.339 -63.225 11 -80.695 18.328 C-83.364 19.106 -84.427 18.979 -87 18 C-88.28 16.449 -88.28 16.449 -89.359 14.473 C-89.753 13.763 -90.146 13.053 -90.551 12.322 C-90.947 11.577 -91.342 10.831 -91.75 10.062 C-92.161 9.321 -92.572 8.579 -92.996 7.814 C-96 2.311 -96 2.311 -96 0 C-93.86 -1.09 -91.793 -2.004 -89.562 -2.875 C-88.892 -3.138 -88.222 -3.401 -87.532 -3.673 C-58.968 -14.484 -27.579 -13.173 0 0 Z " fill="#FFC400" transform="translate(383,544)"/>
<path d="M0 0 C3.512 2.596 5.235 4.68 6 8.938 C6.261 13.007 5.361 15.615 3 19 C-0.226 21.673 -1.625 22.018 -5.875 21.812 C-7.941 21.992 -7.941 21.992 -10 23 C-14.97 30.134 -17.966 38.591 -20 47 C-22.64 46.34 -25.28 45.68 -28 45 C-28.778 36.252 -25.633 28.854 -20.25 22.062 C-16.528 17.147 -16.69 13.636 -17.066 7.645 C-17 5 -17 5 -14.812 1.875 C-9.193 -1.871 -6.495 -2.668 0 0 Z " fill="#141C2D" transform="translate(374,364)"/>
<path d="M0 0 C2.378 3.603 2.189 4.64 1.938 8.812 C1.646 15.091 3.424 17.804 7.238 22.617 C11.64 28.669 13.723 35.696 13.062 43.125 C10.423 43.785 7.783 44.445 5.062 45.125 C4.76 44.147 4.457 43.168 4.145 42.16 C-1.365 24.715 -1.365 24.715 -4.938 21.125 C-7.493 20.251 -9.881 19.882 -12.559 19.555 C-14.938 19.125 -14.938 19.125 -18 17 C-20.455 13.357 -21.238 10.503 -20.938 6.125 C-19.437 1.939 -17.813 -0.644 -13.938 -2.875 C-8.987 -5.094 -4.273 -2.727 0 0 Z " fill="#141C2D" transform="translate(310.9375,365.875)"/>
<path d="M0 0 C3.304 1.798 5.479 4.101 7.375 7.375 C8.485 12.036 8.493 15.676 6.812 20.188 C4.399 23.932 2.335 26.308 -2.043 27.605 C-7.149 28.493 -10.853 27.915 -15.336 25.289 C-18.666 22.709 -19.728 19.916 -20.309 15.824 C-20.61 10.388 -19.634 7.24 -16 3 C-10.979 -1.412 -6.285 -1.566 0 0 Z " fill="#141C2D" transform="translate(1019,408)"/>
<path d="M0 0 C2.725 1.342 5.408 2.727 8.073 4.187 C9.103 4.749 10.134 5.311 11.196 5.89 C12.262 6.475 13.329 7.06 14.428 7.663 C21.106 11.318 27.778 14.939 34.615 18.288 C30.898 19.527 28.807 18.961 24.928 18.351 C4.559 15.595 -17.074 16.554 -37.385 19.288 C-35.74 16 -32.123 15.22 -28.885 13.788 C-21.555 10.487 -14.723 6.684 -8.008 2.263 C-2.983 -0.891 -2.983 -0.891 0 0 Z " fill="#141C2D" transform="translate(336.384521484375,479.7119140625)"/>
<path d="M0 0 C0 3 0 3 -1.871 5.234 C-15.051 18.154 -15.051 18.154 -19 20 C-24.272 19.088 -27.969 14.63 -31.688 11.062 C-32.026 10.746 -32.026 10.746 -33.736 9.143 C-36.517 6.511 -38.865 4.203 -41 1 C-39.751 0.518 -38.501 0.04 -37.25 -0.438 C-36.554 -0.704 -35.858 -0.971 -35.141 -1.246 C-24.258 -5.079 -10.677 -3.951 0 0 Z " fill="#FFC400" transform="translate(355,581)"/>
</svg>
